<!DOCTYPE svg PUBLIC "-//W3C//DTD SVG 1.1//EN" "http://www.w3.org/Graphics/SVG/1.1/DTD/svg11.dtd">
<!-- Uploaded to: SVG Repo, www.svgrepo.com, Transformed by: SVG Repo Mixer Tools -->
<svg fill="#4AB8FF" height="64px" width="64px" version="1.1" id="Layer_1" xmlns="http://www.w3.org/2000/svg" xmlns:xlink="http://www.w3.org/1999/xlink" viewBox="0 0 512 512" xml:space="preserve" transform="rotate(180)">
<g id="SVGRepo_bgCarrier" stroke-width="0"/>
<g id="SVGRepo_tracerCarrier" stroke-linecap="round" stroke-linejoin="round"/>
<g id="SVGRepo_iconCarrier"> <g> <g> <path d="M463.728,49.014c-64.364-64.364-169.091-64.364-233.455,0l-37.382,37.382c-44.632,44.632-59.495,111.759-39.063,170.988 l-29.154,29.154c-12.217,12.217-14.105,30.908-5.668,45.128l-45.062,45.062c-19.143-9.53-43.055-6.344-58.989,9.589 c-19.939,19.94-19.939,52.385,0,72.325c6.742,6.742,15.119,11.352,24.125,13.533c2.181,9.007,6.794,17.386,13.538,24.129 c9.971,9.97,23.066,14.954,36.162,14.954c13.097,0,26.194-4.985,36.163-14.954c15.524-15.524,18.956-38.628,10.309-57.508 l45.289-45.289c5.846,3.682,12.625,5.663,19.721,5.663c9.915,0,19.222-3.848,26.209-10.837l29.265-29.265 c17.322,5.955,35.432,8.984,53.711,8.982c9.65,0,19.35-0.842,28.998-2.534c33.51-5.88,63.906-21.672,87.901-45.667l37.384-37.382 C528.091,218.105,528.091,113.377,463.728,49.014z"/> </g> </g> </g>
</svg>